<?xml version="1.0" encoding="UTF-8" standalone="no"?>
<!DOCTYPE svg PUBLIC "-//W3C//DTD SVG 1.1//EN"
 "http://www.w3.org/Graphics/SVG/1.1/DTD/svg11.dtd">
<!-- Generated by graphviz version 2.43.0 (0)
 -->
<!-- Title: RAG_Bento_Final_V4 Pages: 1 -->
<svg width="960pt" height="798pt"
 viewBox="0.00 0.00 960.40 797.70" xmlns="http://www.w3.org/2000/svg" xmlns:xlink="http://www.w3.org/1999/xlink">
<g id="graph0" class="graph" transform="scale(1 1) rotate(0) translate(43.2 754.5)">
<title>RAG_Bento_Final_V4</title>
<g id="clust1" class="cluster">
<title>cluster_frontend</title>
<path fill="#E8F6FF" stroke="#E8F6FF" d="M150,-199.3C150,-199.3 327,-199.3 327,-199.3 333,-199.3 339,-205.3 339,-211.3 339,-211.3 339,-418.3 339,-418.3 339,-424.3 333,-430.3 327,-430.3 327,-430.3 150,-430.3 150,-430.3 144,-430.3 138,-424.3 138,-418.3 138,-418.3 138,-211.3 138,-211.3 138,-205.3 144,-199.3 150,-199.3"/>
<text text-anchor="middle" x="238.5" y="-413.5" font-family="Inter, system-ui, -apple-system, sans-serif" font-size="16.00" fill="#0284c7">FRONTEND</text>
</g>
<g id="clust2" class="cluster">
<title>cluster_model</title>
<path fill="#F1EEFF" stroke="#F1EEFF" d="M410,-282.3C410,-282.3 575,-282.3 575,-282.3 581,-282.3 587,-288.3 587,-294.3 587,-294.3 587,-501.3 587,-501.3 587,-507.3 581,-513.3 575,-513.3 575,-513.3 410,-513.3 410,-513.3 404,-513.3 398,-507.3 398,-501.3 398,-501.3 398,-294.3 398,-294.3 398,-288.3 404,-282.3 410,-282.3"/>
<text text-anchor="middle" x="492.5" y="-496.5" font-family="Inter, system-ui, -apple-system, sans-serif" font-size="16.00" fill="#7c3aed">MODEL</text>
</g>
<g id="clust3" class="cluster">
<title>cluster_data</title>
<path fill="#E6FDEE" stroke="#E6FDEE" d="M677,-528C677,-528 854,-528 854,-528 860,-528 866,-534 866,-540 866,-540 866,-691.3 866,-691.3 866,-697.3 860,-703.3 854,-703.3 854,-703.3 677,-703.3 677,-703.3 671,-703.3 665,-697.3 665,-691.3 665,-691.3 665,-540 665,-540 665,-534 671,-528 677,-528"/>
<text text-anchor="middle" x="765.5" y="-686.5" font-family="Inter, system-ui, -apple-system, sans-serif" font-size="16.00" fill="#059669">DATA</text>
</g>
<g id="clust4" class="cluster">
<title>cluster_backend</title>
<path fill="#FFF7D9" stroke="#FFF7D9" d="M677,-185.3C677,-185.3 854,-185.3 854,-185.3 860,-185.3 866,-191.3 866,-197.3 866,-197.3 866,-508 866,-508 866,-514 860,-520 854,-520 854,-520 677,-520 677,-520 671,-520 665,-514 665,-508 665,-508 665,-197.3 665,-197.3 665,-191.3 671,-185.3 677,-185.3"/>
<text text-anchor="middle" x="765.5" y="-399.5" font-family="Inter, system-ui, -apple-system, sans-serif" font-size="16.00" fill="#d97706">BACKEND</text>
</g>
<g id="clust5" class="cluster">
<title>cluster_support</title>
<path fill="#F5F8FB" stroke="#F5F8FB" d="M150,-438.3C150,-438.3 327,-438.3 327,-438.3 333,-438.3 339,-444.3 339,-450.3 339,-450.3 339,-558.3 339,-558.3 339,-564.3 333,-570.3 327,-570.3 327,-570.3 150,-570.3 150,-570.3 144,-570.3 138,-564.3 138,-558.3 138,-558.3 138,-450.3 138,-450.3 138,-444.3 144,-438.3 150,-438.3"/>
<text text-anchor="middle" x="238.5" y="-553.5" font-family="Inter, system-ui, -apple-system, sans-serif" font-size="16.00" fill="#475569">SUPPORT</text>
</g>
<!-- User -->
<g id="node1" class="node">
<title>User</title>
<ellipse fill="#0f172a" stroke="black" stroke-width="0" cx="238.5" cy="-69.3" rx="69.09" ry="69.09"/>
<text text-anchor="middle" x="238.5" y="-65.5" font-family="Inter, system-ui, -apple-system, sans-serif" font-size="16.00" fill="white">User</text>
</g>
<!-- s1 -->
<g id="node2" class="node">
<title>s1</title>
<path fill="#0ea5e9" stroke="black" stroke-width="0" d="M302,-379.3C302,-379.3 175,-379.3 175,-379.3 169,-379.3 163,-373.3 163,-367.3 163,-367.3 163,-335.3 163,-335.3 163,-329.3 169,-323.3 175,-323.3 175,-323.3 302,-323.3 302,-323.3 308,-323.3 314,-329.3 314,-335.3 314,-335.3 314,-367.3 314,-367.3 314,-373.3 308,-379.3 302,-379.3"/>
<text text-anchor="start" x="194.5" y="-345.7" font-family="Inter, system-ui, -apple-system, sans-serif" font-size="22.00" fill="white">❶</text>
<text text-anchor="start" x="218.5" y="-347.8" font-family="Inter, system-ui, -apple-system, sans-serif" font-size="15.00" fill="white"> Receive</text>
</g>
<!-- User&#45;&gt;s1 -->
<g id="edge1" class="edge">
<title>User&#45;&gt;s1</title>
<path fill="none" stroke="#94a3b8" stroke-width="2" d="M185.96,-114.65C157.63,-142.79 125.57,-181.55 111,-223.8 101.09,-252.53 122.22,-285.49 138,-302.3 143.85,-308.53 150.66,-314.06 157.93,-318.96"/>
<polygon fill="#94a3b8" stroke="#94a3b8" stroke-width="2" points="156.46,-321.34 164.72,-323.28 159.47,-316.62 156.46,-321.34"/>
<text text-anchor="middle" x="108.5" y="-227.2" font-family="Inter, system-ui, -apple-system, sans-serif" font-size="12.00" fill="#64748b"> 1. Query</text>
</g>
<!-- s2 -->
<g id="node4" class="node">
<title>s2</title>
<path fill="#8b5cf6" stroke="black" stroke-width="0" d="M548.5,-462.3C548.5,-462.3 436.5,-462.3 436.5,-462.3 430.5,-462.3 424.5,-456.3 424.5,-450.3 424.5,-450.3 424.5,-418.3 424.5,-418.3 424.5,-412.3 430.5,-406.3 436.5,-406.3 436.5,-406.3 548.5,-406.3 548.5,-406.3 554.5,-406.3 560.5,-412.3 560.5,-418.3 560.5,-418.3 560.5,-450.3 560.5,-450.3 560.5,-456.3 554.5,-462.3 548.5,-462.3"/>
<text text-anchor="start" x="455.5" y="-428.7" font-family="Inter, system-ui, -apple-system, sans-serif" font-size="22.00" fill="white">❷</text>
<text text-anchor="start" x="479.5" y="-430.8" font-family="Inter, system-ui, -apple-system, sans-serif" font-size="15.00" fill="white"> Vectorize</text>
</g>
<!-- s1&#45;&gt;s2 -->
<g id="edge2" class="edge">
<title>s1&#45;&gt;s2</title>
<path fill="none" stroke="#94a3b8" stroke-width="2" d="M314.09,-375.86C346.47,-386.53 384.32,-398.99 416.72,-409.67"/>
<polygon fill="#94a3b8" stroke="#94a3b8" stroke-width="2" points="415.93,-412.35 424.4,-412.2 417.68,-407.03 415.93,-412.35"/>
<text text-anchor="middle" x="368.5" y="-400.7" font-family="Inter, system-ui, -apple-system, sans-serif" font-size="12.00" fill="#64748b"> 2. Text</text>
</g>
<!-- s7 -->
<g id="node3" class="node">
<title>s7</title>
<path fill="#0ea5e9" stroke="black" stroke-width="0" d="M302,-280.3C302,-280.3 175,-280.3 175,-280.3 169,-280.3 163,-274.3 163,-268.3 163,-268.3 163,-236.3 163,-236.3 163,-230.3 169,-224.3 175,-224.3 175,-224.3 302,-224.3 302,-224.3 308,-224.3 314,-230.3 314,-236.3 314,-236.3 314,-268.3 314,-268.3 314,-274.3 308,-280.3 302,-280.3"/>
<text text-anchor="start" x="194.5" y="-246.7" font-family="Inter, system-ui, -apple-system, sans-serif" font-size="22.00" fill="white">❼</text>
<text text-anchor="start" x="218.5" y="-248.8" font-family="Inter, system-ui, -apple-system, sans-serif" font-size="15.00" fill="white"> Respond</text>
</g>
<!-- s7&#45;&gt;User -->
<g id="edge9" class="edge">
<title>s7&#45;&gt;User</title>
<path fill="none" stroke="#94a3b8" stroke-width="2" d="M238.5,-224.24C238.5,-203.54 238.5,-174.32 238.5,-146.82"/>
<polygon fill="#94a3b8" stroke="#94a3b8" stroke-width="2" points="241.3,-146.74 238.5,-138.74 235.7,-146.74 241.3,-146.74"/>
<text text-anchor="middle" x="229" y="-178.34" font-family="Inter, system-ui, -apple-system, sans-serif" font-size="12.00" fill="#64748b"> 8. Answer</text>
</g>
<!-- s8 -->
<g id="node10" class="node">
<title>s8</title>
<path fill="#64748b" stroke="black" stroke-width="0" d="M302,-519.3C302,-519.3 175,-519.3 175,-519.3 169,-519.3 163,-513.3 163,-507.3 163,-507.3 163,-475.3 163,-475.3 163,-469.3 169,-463.3 175,-463.3 175,-463.3 302,-463.3 302,-463.3 308,-463.3 314,-469.3 314,-475.3 314,-475.3 314,-507.3 314,-507.3 314,-513.3 308,-519.3 302,-519.3"/>
<text text-anchor="start" x="194.5" y="-485.7" font-family="Inter, system-ui, -apple-system, sans-serif" font-size="22.00" fill="white">❽</text>
<text text-anchor="start" x="218.5" y="-487.8" font-family="Inter, system-ui, -apple-system, sans-serif" font-size="15.00" fill="white"> Op. Logs</text>
</g>
<!-- s7&#45;&gt;s8 -->
<g id="edge10" class="edge">
<title>s7&#45;&gt;s8</title>
<path fill="none" stroke="#94a3b8" stroke-width="2" d="M164.88,-280.45C154.94,-286.55 145.58,-293.78 138,-302.3 118.37,-324.35 120.58,-335.71 115.5,-364.8 109.48,-399.29 114.82,-414.05 138,-440.3 144.17,-447.29 151.53,-453.44 159.42,-458.83"/>
<polygon fill="#94a3b8" stroke="#94a3b8" stroke-width="2" points="157.91,-461.19 166.15,-463.18 160.95,-456.48 157.91,-461.19"/>
<text text-anchor="middle" x="108.5" y="-368.2" font-family="Inter, system-ui, -apple-system, sans-serif" font-size="12.00" fill="#64748b"> Logs</text>
</g>
<!-- s3 -->
<g id="node6" class="node">
<title>s3</title>
<path fill="#f59e0b" stroke="black" stroke-width="0" d="M829,-505.3C829,-505.3 702,-505.3 702,-505.3 696,-505.3 690,-499.3 690,-493.3 690,-493.3 690,-461.3 690,-461.3 690,-455.3 696,-449.3 702,-449.3 702,-449.3 829,-449.3 829,-449.3 835,-449.3 841,-455.3 841,-461.3 841,-461.3 841,-493.3 841,-493.3 841,-499.3 835,-505.3 829,-505.3"/>
<text text-anchor="start" x="721.5" y="-471.7" font-family="Inter, system-ui, -apple-system, sans-serif" font-size="22.00" fill="white">❸</text>
<text text-anchor="start" x="745.5" y="-473.8" font-family="Inter, system-ui, -apple-system, sans-serif" font-size="15.00" fill="white"> Retrieval</text>
</g>
<!-- s2&#45;&gt;s3 -->
<g id="edge3" class="edge">
<title>s2&#45;&gt;s3</title>
<path fill="none" stroke="#94a3b8" stroke-width="2" d="M560.57,-438.23C589.45,-440.53 623.52,-444.04 654,-449.3 663.14,-450.87 672.64,-452.81 682.06,-454.92"/>
<polygon fill="#94a3b8" stroke="#94a3b8" stroke-width="2" points="681.52,-457.67 689.94,-456.74 682.77,-452.21 681.52,-457.67"/>
<text text-anchor="middle" x="626" y="-452.7" font-family="Inter, system-ui, -apple-system, sans-serif" font-size="12.00" fill="#64748b"> 3. Vector</text>
</g>
<!-- s5 -->
<g id="node5" class="node">
<title>s5</title>
<path fill="#8b5cf6" stroke="black" stroke-width="0" d="M550,-363.3C550,-363.3 435,-363.3 435,-363.3 429,-363.3 423,-357.3 423,-351.3 423,-351.3 423,-319.3 423,-319.3 423,-313.3 429,-307.3 435,-307.3 435,-307.3 550,-307.3 550,-307.3 556,-307.3 562,-313.3 562,-319.3 562,-319.3 562,-351.3 562,-351.3 562,-357.3 556,-363.3 550,-363.3"/>
<text text-anchor="start" x="454.5" y="-329.7" font-family="Inter, system-ui, -apple-system, sans-serif" font-size="22.00" fill="white">❺</text>
<text text-anchor="start" x="478.5" y="-331.8" font-family="Inter, system-ui, -apple-system, sans-serif" font-size="15.00" fill="white"> AI Generate</text>
</g>
<!-- s6 -->
<g id="node9" class="node">
<title>s6</title>
<path fill="#f59e0b" stroke="black" stroke-width="0" d="M829,-266.3C829,-266.3 702,-266.3 702,-266.3 696,-266.3 690,-260.3 690,-254.3 690,-254.3 690,-222.3 690,-222.3 690,-216.3 696,-210.3 702,-210.3 702,-210.3 829,-210.3 829,-210.3 835,-210.3 841,-216.3 841,-222.3 841,-222.3 841,-254.3 841,-254.3 841,-260.3 835,-266.3 829,-266.3"/>
<text text-anchor="start" x="721.5" y="-232.7" font-family="Inter, system-ui, -apple-system, sans-serif" font-size="22.00" fill="white">❻</text>
<text text-anchor="start" x="745.5" y="-234.8" font-family="Inter, system-ui, -apple-system, sans-serif" font-size="15.00" fill="white"> Rule Check</text>
</g>
<!-- s5&#45;&gt;s6 -->
<g id="edge7" class="edge">
<title>s5&#45;&gt;s6</title>
<path fill="none" stroke="#94a3b8" stroke-width="2" d="M562.24,-310.69C598.69,-297.64 643.75,-281.52 682.08,-267.8"/>
<polygon fill="#94a3b8" stroke="#94a3b8" stroke-width="2" points="683.06,-270.42 689.65,-265.09 681.17,-265.15 683.06,-270.42"/>
<text text-anchor="middle" x="626" y="-298.7" font-family="Inter, system-ui, -apple-system, sans-serif" font-size="12.00" fill="#64748b"> 6. Output</text>
</g>
<!-- db -->
<g id="node7" class="node">
<title>db</title>
<path fill="#059669" stroke="black" stroke-width="0" d="M817.5,-646.56C817.5,-649.66 794.19,-652.17 765.5,-652.17 736.81,-652.17 713.5,-649.66 713.5,-646.56 713.5,-646.56 713.5,-596.03 713.5,-596.03 713.5,-592.94 736.81,-590.42 765.5,-590.42 794.19,-590.42 817.5,-592.94 817.5,-596.03 817.5,-596.03 817.5,-646.56 817.5,-646.56"/>
<path fill="none" stroke="black" stroke-width="0" d="M817.5,-646.56C817.5,-643.46 794.19,-640.94 765.5,-640.94 736.81,-640.94 713.5,-643.46 713.5,-646.56"/>
<text text-anchor="middle" x="765.5" y="-624" font-family="Inter, system-ui, -apple-system, sans-serif" font-size="15.00" fill="white"><tspan x="765.5" dy="0">Knowledge</tspan><tspan x="765.5" dy="16">Base</tspan></text>
</g>
<!-- s3&#45;&gt;db -->
<g id="edge4" class="edge">
<title>s3&#45;&gt;db</title>
<path fill="none" stroke="#94a3b8" stroke-width="2" d="M765.5,-505.4C765.5,-527.22 765.5,-557.74 765.5,-581.98"/>
<polygon fill="#94a3b8" stroke="#94a3b8" stroke-width="2" points="762.7,-582.27 765.5,-590.27 768.3,-582.27 762.7,-582.27"/>
<text text-anchor="middle" x="756" y="-544.73" font-family="Inter, system-ui, -apple-system, sans-serif" font-size="12.00" fill="#64748b"> Retrieve</text>
</g>
<!-- s4 -->
<g id="node8" class="node">
<title>s4</title>
<path fill="#f59e0b" stroke="black" stroke-width="0" d="M829,-365.3C829,-365.3 702,-365.3 702,-365.3 696,-365.3 690,-359.3 690,-353.3 690,-353.3 690,-321.3 690,-321.3 690,-315.3 696,-309.3 702,-309.3 702,-309.3 829,-309.3 829,-309.3 835,-309.3 841,-315.3 841,-321.3 841,-321.3 841,-353.3 841,-353.3 841,-359.3 835,-365.3 829,-365.3"/>
<text text-anchor="start" x="721.5" y="-331.7" font-family="Inter, system-ui, -apple-system, sans-serif" font-size="22.00" fill="white">❹</text>
<text text-anchor="start" x="745.5" y="-333.8" font-family="Inter, system-ui, -apple-system, sans-serif" font-size="15.00" fill="white"> Assemble</text>
</g>
<!-- db&#45;&gt;s4 -->
<g id="edge5" class="edge">
<title>db&#45;&gt;s4</title>
<path fill="none" stroke="#94a3b8" stroke-width="2" d="M713.36,-602.52C671.82,-583.89 621.92,-551.38 630.5,-504.8 638.3,-462.46 639.27,-448.81 665,-414.3 677.64,-397.34 694.98,-382.25 711.7,-370.02"/>
<polygon fill="#94a3b8" stroke="#94a3b8" stroke-width="2" points="713.42,-372.23 718.31,-365.31 710.17,-367.67 713.42,-372.23"/>
<text text-anchor="middle" x="626" y="-508.2" font-family="Inter, system-ui, -apple-system, sans-serif" font-size="12.00" fill="#64748b"> 4. Chunks</text>
</g>
<!-- s4&#45;&gt;s5 -->
<g id="edge6" class="edge">
<title>s4&#45;&gt;s5</title>
<path fill="none" stroke="#94a3b8" stroke-width="2" d="M689.65,-336.74C652.6,-336.47 607.92,-336.14 570.58,-335.87"/>
<polygon fill="#94a3b8" stroke="#94a3b8" stroke-width="2" points="570.26,-333.06 562.24,-335.8 570.21,-338.66 570.26,-333.06"/>
<text text-anchor="middle" x="626" y="-339.7" font-family="Inter, system-ui, -apple-system, sans-serif" font-size="12.00" fill="#64748b"> 5.Prompt</text>
</g>
<!-- s6&#45;&gt;s7 -->
<g id="edge8" class="edge">
<title>s6&#45;&gt;s7</title>
<path fill="none" stroke="#94a3b8" stroke-width="2" d="M689.67,-240.29C592.43,-242.89 423.17,-247.4 322.21,-250.09"/>
<polygon fill="#94a3b8" stroke="#94a3b8" stroke-width="2" points="322.08,-247.29 314.16,-250.31 322.23,-252.89 322.08,-247.29"/>
<text text-anchor="middle" x="492.5" y="-250.7" font-family="Inter, system-ui, -apple-system, sans-serif" font-size="12.00" fill="#64748b"> 7. Review</text>
</g>
<!-- hist -->
<g id="node11" class="node">
<title>hist</title>
<path fill="#f59e0b" stroke="black" stroke-width="0" d="M302,-650.3C302,-650.3 175,-650.3 175,-650.3 169,-650.3 163,-644.3 163,-638.3 163,-638.3 163,-606.3 163,-606.3 163,-600.3 169,-594.3 175,-594.3 175,-594.3 302,-594.3 302,-594.3 308,-594.3 314,-600.3 314,-606.3 314,-606.3 314,-638.3 314,-638.3 314,-644.3 308,-650.3 302,-650.3"/>
<text text-anchor="middle" x="238.5" y="-618.8" font-family="Inter, system-ui, -apple-system, sans-serif" font-size="15.00" fill="white">Chat History</text>
</g>
<!-- s7&#45;&gt;hist -->
<g id="edge11" class="edge">
<title>s7&#45;&gt;hist</title>
<path fill="none" stroke="#94a3b8" stroke-width="2" d="M164.88,-280.45C154.94,-286.55 145.58,-293.78 138,-302.3C118.37,-324.35 108,-360 108,-410C108,-470 112,-530 140,-565C152,-580 163,-588 173.5,-592.3"/>
<polygon fill="#94a3b8" stroke="#94a3b8" stroke-width="2" points="172,-594.6 178.8,-596.5 175.8,-589.6 172,-594.6"/>
<text text-anchor="middle" x="90" y="-436" font-family="Inter, system-ui, -apple-system, sans-serif" font-size="12.00" fill="#64748b"> History</text>
</g>
</g>
</svg>
