<?xml version="1.0" encoding="utf-8" standalone="yes"?>
<!DOCTYPE svg PUBLIC "-//W3C//DTD SVG 1.1//EN" "http://www.w3.org/Graphics/SVG/1.1/DTD/svg11.dtd">
<svg style="fill:none;stroke:none;fill-rule:evenodd;clip-rule:evenodd;stroke-linecap:round;stroke-linejoin:round;stroke-miterlimit:1.5;" version="1.1" xmlns="http://www.w3.org/2000/svg" xmlns:xlink="http://www.w3.org/1999/xlink" width="606" height="475" viewBox="0 0 606 475"><style class="text-font-style fontImports" data-font-family="Roboto Slab">@import url(https://fonts.googleapis.com/css2?family=Roboto+Slab:wght@400;700&amp;amp;display=block);</style><style class="text-font-style fontImports" data-font-family="Roboto">@import url(https://fonts.googleapis.com/css2?family=Roboto:wght@400;700&amp;amp;display=block);</style><g id="items" style="isolation: isolate"><g id="blend" style="mix-blend-mode: normal"><g id="g-root-cp_0_g-0_dgptwk1drnea4-fill" data-item-order="-211249" transform="translate(20, 248)"></g><g id="g-root-cp_0_g-0_dgptwk1drnea4-stroke" data-item-order="-211249" transform="translate(20, 248)"><g id="cp_0_g-0_dgptwk1drnea4-stroke" fill="none" stroke-linecap="round" stroke-linejoin="round" stroke-miterlimit="4" stroke="#2C6249" stroke-width="1" stroke-opacity="1"><g><path d="M 67 10L 10 10M 128.0307 10L 72.9706 10M 187 10L 134 10M 247 10L 192.9701 10M 307 10L 252.9703 10M 367.0306 10L 312.9701 10M 427.0299 10L 373 10M 487 10L 433 10"></path></g></g></g><g id="g-root-sy_0_Vector_90wbs41drnf2d-fill" data-item-order="-211245" transform="translate(503, 248)"></g><g id="g-root-sy_0_Vector_90wbs41drnf2d-stroke" data-item-order="-211245" transform="translate(503, 248)"><g id="sy_0_Vector_90wbs41drnf2d-stroke" fill="none" stroke-linecap="round" stroke-linejoin="round" stroke-miterlimit="4" stroke="#2C6249" stroke-width="1" stroke-opacity="1"><style>.fillAsStrokeColor-mk-1cw5eas1fpgdu1 { fill:#2C6249; }</style><g><path d="M 64.17 10L 10 10"></path><path d="M 65.6 10L 60.6 12.8L 60.6 7.2Z" stroke-dasharray="none" class="fillAsStrokeColor-mk-1cw5eas1fpgdu1" fill="#2C6249"></path></g></g></g><g id="g-root-cp_1_g-1_59bj81drnfv2-fill" data-item-order="-211242" transform="translate(33, 182)"><g id="cp_1_g-1_59bj81drnfv2-fill-merged" stroke="none" fill="#DCE6DD" fill-opacity="1"><g><path d="M10 16.857C10 13.07 12.686 10 16 10 H100C103.314 10 106 13.07 106 16.857 V51.143C106 54.93 103.314 58 100 58 H16C12.686 58 10 54.93 10 51.143 V16.857"></path></g></g></g><g id="g-root-cp_1_g-1_59bj81drnfv2-stroke" data-item-order="-211242" transform="translate(33, 182)"><g id="cp_1_g-1_59bj81drnfv2-stroke" fill="none" stroke-linecap="round" stroke-linejoin="round" stroke-miterlimit="4" stroke="#F5EFE4" stroke-width="1" stroke-opacity="1"><g><path d="M 10 16.8571C 10 13.07 12.6863 10 16 10L 100 10C 103.3137 10 106 13.07 106 16.8571L 106 51.1429C 106 54.93 103.3137 58 100 58L 16 58C 12.6863 58 10 54.93 10 51.1429L 10 16.8571Z"></path></g></g></g><g id="g-root-cp_1_g-1_1_59bj81drnfv3-fill" data-item-order="-211237" transform="translate(77, 230)"></g><g id="g-root-cp_1_g-1_1_59bj81drnfv3-stroke" data-item-order="-211237" transform="translate(77, 230)"><g id="cp_1_g-1_1_59bj81drnfv3-stroke" fill="none" stroke-linecap="round" stroke-linejoin="round" stroke-miterlimit="4" stroke="#2C6249" stroke-width="1" stroke-opacity="1"><g><path d="M 13 10L 13 25M 16 28C 16 29.6569 14.6569 31 13 31C 11.3432 31 10 29.6569 10 28C 10 26.3431 11.3432 25 13 25C 14.6569 25 16 26.3431 16 28Z"></path></g></g></g><g id="g-root-cp_2_g-2_1ur6ch01drndag-fill" data-item-order="-211232" transform="translate(93, 266)"><g id="cp_2_g-2_1ur6ch01drndag-fill-merged" stroke="none" fill="#DCE6DD" fill-opacity="1"><g><path d="M10 16.857C10 13.07 12.686 10 16 10 H100C103.314 10 106 13.07 106 16.857 V51.143C106 54.93 103.314 58 100 58 H16C12.686 58 10 54.93 10 51.143 V16.857"></path></g></g></g><g id="g-root-cp_2_g-2_1ur6ch01drndag-stroke" data-item-order="-211232" transform="translate(93, 266)"><g id="cp_2_g-2_1ur6ch01drndag-stroke" fill="none" stroke-linecap="round" stroke-linejoin="round" stroke-miterlimit="4" stroke="#F5EFE4" stroke-width="1" stroke-opacity="1"><g><path d="M 10 16.8571C 10 13.07 12.6863 10 16 10L 100 10C 103.3137 10 106 13.07 106 16.8571L 106 51.1429C 106 54.93 103.3137 58 100 58L 16 58C 12.6863 58 10 54.93 10 51.1429L 10 16.8571Z"></path></g></g></g><g id="g-root-cp_2_g-2_1_1ur6ch01drndah-fill" data-item-order="-211227" transform="translate(138, 245)"></g><g id="g-root-cp_2_g-2_1_1ur6ch01drndah-stroke" data-item-order="-211227" transform="translate(138, 245)"><g id="cp_2_g-2_1_1ur6ch01drndah-stroke" fill="none" stroke-linecap="round" stroke-linejoin="round" stroke-miterlimit="4" stroke="#2C6249" stroke-width="1" stroke-opacity="1"><g><path d="M 13 31L 13 16M 16 13C 16 14.6569 14.6568 16 13 16C 11.3431 16 10 14.6569 10 13C 10 11.3431 11.3431 10 13 10C 14.6568 10 16 11.3431 16 13Z"></path></g></g></g><g id="g-root-cp_3_g-3_1qbcuck1drne2q-fill" data-item-order="-211222" transform="translate(152, 182)"><g id="cp_3_g-3_1qbcuck1drne2q-fill-merged" stroke="none" fill="#43836A" fill-opacity="1"><g><path d="M10 16.857C10 13.07 12.686 10 16 10 H100C103.314 10 106 13.07 106 16.857 V51.143C106 54.93 103.314 58 100 58 H16C12.686 58 10 54.93 10 51.143 V16.857"></path></g></g></g><g id="g-root-cp_3_g-3_1qbcuck1drne2q-stroke" data-item-order="-211222" transform="translate(152, 182)"><g id="cp_3_g-3_1qbcuck1drne2q-stroke" fill="none" stroke-linecap="round" stroke-linejoin="round" stroke-miterlimit="4" stroke="#F5EFE4" stroke-width="1" stroke-opacity="1"><g><path d="M 10 16.8571C 10 13.07 12.6863 10 16 10L 100 10C 103.3137 10 106 13.07 106 16.8571L 106 51.1429C 106 54.93 103.3137 58 100 58L 16 58C 12.6863 58 10 54.93 10 51.1429L 10 16.8571Z"></path></g></g></g><g id="g-root-cp_3_g-3_1_1qbcuck1drne2r-fill" data-item-order="-211217" transform="translate(197, 230)"></g><g id="g-root-cp_3_g-3_1_1qbcuck1drne2r-stroke" data-item-order="-211217" transform="translate(197, 230)"><g id="cp_3_g-3_1_1qbcuck1drne2r-stroke" fill="none" stroke-linecap="round" stroke-linejoin="round" stroke-miterlimit="4" stroke="#2C6249" stroke-width="1" stroke-opacity="1"><g><path d="M 13 10L 13 25M 16 28C 16 29.6569 14.6568 31 13 31C 11.3431 31 10 29.6569 10 28C 10 26.3431 11.3431 25 13 25C 14.6568 25 16 26.3431 16 28Z"></path></g></g></g><g id="g-root-cp_4_g-4_1qbcuck1drne2s-fill" data-item-order="-211212" transform="translate(212, 266)"><g id="cp_4_g-4_1qbcuck1drne2s-fill-merged" stroke="none" fill="#43836A" fill-opacity="1"><g><path d="M10 16.857C10 13.07 12.686 10 16 10 H100C103.314 10 106 13.07 106 16.857 V51.143C106 54.93 103.314 58 100 58 H16C12.686 58 10 54.93 10 51.143 V16.857"></path></g></g></g><g id="g-root-cp_4_g-4_1qbcuck1drne2s-stroke" data-item-order="-211212" transform="translate(212, 266)"><g id="cp_4_g-4_1qbcuck1drne2s-stroke" fill="none" stroke-linecap="round" stroke-linejoin="round" stroke-miterlimit="4" stroke="#F5EFE4" stroke-width="1" stroke-opacity="1"><g><path d="M 10 16.8571C 10 13.07 12.6863 10 16 10L 100 10C 103.3137 10 106 13.07 106 16.8571L 106 51.1429C 106 54.93 103.3137 58 100 58L 16 58C 12.6863 58 10 54.93 10 51.1429L 10 16.8571Z"></path></g></g></g><g id="g-root-cp_4_g-4_1_1hfpu3o1drnevh-fill" data-item-order="-211207" transform="translate(257, 245)"></g><g id="g-root-cp_4_g-4_1_1hfpu3o1drnevh-stroke" data-item-order="-211207" transform="translate(257, 245)"><g id="cp_4_g-4_1_1hfpu3o1drnevh-stroke" fill="none" stroke-linecap="round" stroke-linejoin="round" stroke-miterlimit="4" stroke="#2C6249" stroke-width="1" stroke-opacity="1"><g><path d="M 13 31L 13 16M 16 13C 16 14.6569 14.6568 16 13 16C 11.3431 16 10 14.6569 10 13C 10 11.3431 11.3431 10 13 10C 14.6568 10 16 11.3431 16 13Z"></path></g></g></g><g id="g-root-cp_5_g-5_1hfpu3o1drnevi-fill" data-item-order="-211202" transform="translate(273, 182)"><g id="cp_5_g-5_1hfpu3o1drnevi-fill-merged" stroke="none" fill="#43836A" fill-opacity="1"><g><path d="M10 16.857C10 13.07 12.686 10 16 10 H100C103.314 10 106 13.07 106 16.857 V51.143C106 54.93 103.314 58 100 58 H16C12.686 58 10 54.93 10 51.143 V16.857"></path></g></g></g><g id="g-root-cp_5_g-5_1hfpu3o1drnevi-stroke" data-item-order="-211202" transform="translate(273, 182)"><g id="cp_5_g-5_1hfpu3o1drnevi-stroke" fill="none" stroke-linecap="round" stroke-linejoin="round" stroke-miterlimit="4" stroke="#F5EFE4" stroke-width="1" stroke-opacity="1"><g><path d="M 10 16.8571C 10 13.07 12.6863 10 16 10L 100 10C 103.3137 10 106 13.07 106 16.8571L 106 51.1429C 106 54.93 103.3137 58 100 58L 16 58C 12.6863 58 10 54.93 10 51.1429L 10 16.8571Z"></path></g></g></g><g id="g-root-cp_5_g-5_1_1hfpu3o1drnevj-fill" data-item-order="-211197" transform="translate(317, 230)"></g><g id="g-root-cp_5_g-5_1_1hfpu3o1drnevj-stroke" data-item-order="-211197" transform="translate(317, 230)"><g id="cp_5_g-5_1_1hfpu3o1drnevj-stroke" fill="none" stroke-linecap="round" stroke-linejoin="round" stroke-miterlimit="4" stroke="#2C6249" stroke-width="1" stroke-opacity="1"><g><path d="M 13 10L 13 25M 16 28C 16 29.6569 14.6568 31 13 31C 11.3431 31 10 29.6569 10 28C 10 26.3431 11.3431 25 13 25C 14.6568 25 16 26.3431 16 28Z"></path></g></g></g><g id="g-root-cp_6_g-6_1czwbz81drnfns-fill" data-item-order="-211192" transform="translate(332, 266)"><g id="cp_6_g-6_1czwbz81drnfns-fill-merged" stroke="none" fill="#DCE6DD" fill-opacity="1"><g><path d="M10 16.857C10 13.07 12.686 10 16 10 H100C103.314 10 106 13.07 106 16.857 V51.143C106 54.93 103.314 58 100 58 H16C12.686 58 10 54.93 10 51.143 V16.857"></path></g></g></g><g id="g-root-cp_6_g-6_1czwbz81drnfns-stroke" data-item-order="-211192" transform="translate(332, 266)"><g id="cp_6_g-6_1czwbz81drnfns-stroke" fill="none" stroke-linecap="round" stroke-linejoin="round" stroke-miterlimit="4" stroke="#F5EFE4" stroke-width="1" stroke-opacity="1"><g><path d="M 10 16.8571C 10 13.07 12.6863 10 16 10L 100 10C 103.3137 10 106 13.07 106 16.8571L 106 51.1429C 106 54.93 103.3137 58 100 58L 16 58C 12.6863 58 10 54.93 10 51.1429L 10 16.8571Z"></path></g></g></g><g id="g-root-cp_6_g-6_1_1czwbz81drnfnt-fill" data-item-order="-211187" transform="translate(377, 245)"></g><g id="g-root-cp_6_g-6_1_1czwbz81drnfnt-stroke" data-item-order="-211187" transform="translate(377, 245)"><g id="cp_6_g-6_1_1czwbz81drnfnt-stroke" fill="none" stroke-linecap="round" stroke-linejoin="round" stroke-miterlimit="4" stroke="#2C6249" stroke-width="1" stroke-opacity="1"><g><path d="M 13 31L 13 16M 16 13C 16 14.6569 14.6569 16 13 16C 11.3431 16 10 14.6569 10 13C 10 11.3431 11.3431 10 13 10C 14.6569 10 16 11.3431 16 13Z"></path></g></g></g><g id="g-root-cp_7_g-7_1czwbz81drnfnu-fill" data-item-order="-211182" transform="translate(392, 182)"><g id="cp_7_g-7_1czwbz81drnfnu-fill-merged" stroke="none" fill="#DCE6DD" fill-opacity="1"><g><path d="M10 16.857C10 13.07 12.686 10 16 10 H100C103.314 10 106 13.07 106 16.857 V51.143C106 54.93 103.314 58 100 58 H16C12.686 58 10 54.93 10 51.143 V16.857"></path></g></g></g><g id="g-root-cp_7_g-7_1czwbz81drnfnu-stroke" data-item-order="-211182" transform="translate(392, 182)"><g id="cp_7_g-7_1czwbz81drnfnu-stroke" fill="none" stroke-linecap="round" stroke-linejoin="round" stroke-miterlimit="4" stroke="#F5EFE4" stroke-width="1" stroke-opacity="1"><g><path d="M 10 16.8571C 10 13.07 12.6863 10 16 10L 100 10C 103.3137 10 106 13.07 106 16.8571L 106 51.1429C 106 54.93 103.3137 58 100 58L 16 58C 12.6863 58 10 54.93 10 51.1429L 10 16.8571Z"></path></g></g></g><g id="g-root-cp_7_g-7_1_18kpaxw1drndab-fill" data-item-order="-211177" transform="translate(437, 230)"></g><g id="g-root-cp_7_g-7_1_18kpaxw1drndab-stroke" data-item-order="-211177" transform="translate(437, 230)"><g id="cp_7_g-7_1_18kpaxw1drndab-stroke" fill="none" stroke-linecap="round" stroke-linejoin="round" stroke-miterlimit="4" stroke="#2C6249" stroke-width="1" stroke-opacity="1"><g><path d="M 13 10L 13 25M 16 28C 16 29.6569 14.6569 31 13 31C 11.3432 31 10 29.6569 10 28C 10 26.3431 11.3432 25 13 25C 14.6569 25 16 26.3431 16 28Z"></path></g></g></g><g id="g-root-cp_8_g-8_18kpaxw1drndac-fill" data-item-order="-211172" transform="translate(452, 266)"><g id="cp_8_g-8_18kpaxw1drndac-fill-merged" stroke="none" fill="#DCE6DD" fill-opacity="1"><g><path d="M10 16.857C10 13.07 12.686 10 16 10 H100C103.314 10 106 13.07 106 16.857 V51.143C106 54.93 103.314 58 100 58 H16C12.686 58 10 54.93 10 51.143 V16.857"></path></g></g></g><g id="g-root-cp_8_g-8_18kpaxw1drndac-stroke" data-item-order="-211172" transform="translate(452, 266)"><g id="cp_8_g-8_18kpaxw1drndac-stroke" fill="none" stroke-linecap="round" stroke-linejoin="round" stroke-miterlimit="4" stroke="#F5EFE4" stroke-width="1" stroke-opacity="1"><g><path d="M 10 16.8571C 10 13.07 12.6863 10 16 10L 100 10C 103.3137 10 106 13.07 106 16.8571L 106 51.1429C 106 54.93 103.3137 58 100 58L 16 58C 12.6863 58 10 54.93 10 51.1429L 10 16.8571Z"></path></g></g></g><g id="g-root-cp_8_g-8_1_zp2ap01drne31-fill" data-item-order="-211167" transform="translate(497, 245)"></g><g id="g-root-cp_8_g-8_1_zp2ap01drne31-stroke" data-item-order="-211167" transform="translate(497, 245)"><g id="cp_8_g-8_1_zp2ap01drne31-stroke" fill="none" stroke-linecap="round" stroke-linejoin="round" stroke-miterlimit="4" stroke="#2C6249" stroke-width="1" stroke-opacity="1"><g><path d="M 13 31L 13 16M 16 13C 16 14.6569 14.6569 16 13 16C 11.3431 16 10 14.6569 10 13C 10 11.3431 11.3431 10 13 10C 14.6569 10 16 11.3431 16 13Z"></path></g></g></g><g id="g-root-ic_para_9mqas1drndhp-fill" data-item-order="0" transform="translate(422, 188)"></g><g id="g-root-ic_para_9mqas1drndhp-stroke" data-item-order="0" transform="translate(422, 188)"><g id="ic_para_9mqas1drndhp-stroke" fill="none" stroke-linecap="round" stroke-linejoin="round" stroke-miterlimit="4" stroke="#2C6249" stroke-width="1" stroke-opacity="1"><g><path d="M 28.149851 13.90015L 44.799702 13.90015M 28.149851 21.09985L 44.799702 21.09985M 13.89997 28.15015L 44.800003 28.15015M 13.89997 35.34985L 44.800003 35.34985M 13.89997 42.40015L 44.800003 42.40015M 12.700075 19.90015C 12.700075 20.500151 13.300076 21.100225 13.900075 21.100225M 13.900075 18.700436C 13.300076 18.700436 12.700075 19.30051 12.700075 19.900509M 15.09997 19.900509C 15.09997 19.30051 14.499969 18.700436 13.89997 18.700436M 13.89997 21.100225C 14.499969 21.100225 15.09997 20.500151 15.09997 19.90015M 13.75009 13.59985C 12.40009 14.34985 11.200073 15.69985 11.200073 17.34985C 11.200073 18.999849 11.950075 20.94985 13.900075 21.09985M 21.09985 19.90015C 21.09985 20.500151 21.699865 21.100225 22.299866 21.100225M 22.299866 18.700436C 21.699865 18.700436 21.09985 19.30051 21.09985 19.900509M 23.499926 19.900509C 23.499926 19.30051 22.899925 18.700436 22.299925 18.700436M 22.299925 21.100225C 22.899925 21.100225 23.499926 20.500151 23.499926 19.90015M 22.00009 13.59985C 20.650089 14.34985 19.450075 15.69985 19.450075 17.34985C 19.450075 18.999849 20.200075 20.94985 22.150074 21.09985"></path></g></g></g><g id="g-root-ic_1_1lsf1yc1drgdtv-fill" data-item-order="0" transform="translate(302, 188)"></g><g id="g-root-ic_1_1lsf1yc1drgdtv-stroke" data-item-order="0" transform="translate(302, 188)"><g id="ic_1_1lsf1yc1drgdtv-stroke" fill="none" stroke-linecap="round" stroke-linejoin="round" stroke-miterlimit="4" stroke="#F5EFE4" stroke-width="1" stroke-opacity="1"><g><path d="M 39.25 27.25L 16.75 27.25M 28 27.25L 28 20.5M 34 27.25C 34 28.75 30.3055 40.084 18.25 45.25M 22 27.25C 22 28.75 25.6945 40.084 37.75 45.25M 15.25 24.25C 15.25 19.279438 19.279438 15.25 24.25 15.25M 10.75 24.25C 10.75 16.794155 16.794155 10.75 24.25 10.75M 40.75 24.25C 40.75 19.279438 36.720566 15.25 31.75 15.25M 45.25 24.25C 45.25 16.794155 39.205841 10.75 31.75 10.75"></path></g></g></g><g id="g-root-ic_stor_1uqjyjo1dr55vx-fill" data-item-order="0" transform="translate(182, 188)"></g><g id="g-root-ic_stor_1uqjyjo1dr55vx-stroke" data-item-order="0" transform="translate(182, 188)"><g id="ic_stor_1uqjyjo1dr55vx-stroke" fill="none" stroke-linecap="round" stroke-linejoin="round" stroke-miterlimit="4" stroke="#F5EFE4" stroke-width="1" stroke-opacity="1"><g><path d="M 10.75 28.75L 25.75 28.75M 30.25 24.25L 45.25 24.25M 34.75 24.25L 36.25 21.25M 39.25 24.25L 40.75 21.25M 16.75 28.75L 15.25 28.75C 14.421573 28.75 13.75 28.078428 13.75 27.25L 13.75 24.25L 13.75 24.25L 18.25 24.25L 18.25 24.25L 18.25 27.25C 18.25 28.078428 17.578428 28.75 16.75 28.75ZM 22.75 10.75L 22.75 16.75M 33.25 16.75L 33.25 10.75M 12.25 10.75C 11.421573 10.75 10.75 11.421573 10.75 12.25L 10.75 16.75L 45.25 16.75L 45.25 12.25C 45.25 11.421573 44.578426 10.75 43.75 10.75ZM 33.25 45.25L 33.25 36.25M 22.75 36.25L 22.75 45.25M 43.75 45.25C 44.578426 45.25 45.25 44.578426 45.25 43.75L 45.25 36.25L 10.75 36.25L 10.75 43.75C 10.75 44.578426 11.421573 45.25 12.25 45.25ZM 12.25 33.25L 43.75 33.25C 44.578426 33.25 45.25 33.921574 45.25 34.75L 45.25 36.25L 45.25 36.25L 10.75 36.25L 10.75 36.25L 10.75 34.75C 10.75 33.921574 11.421573 33.25 12.25 33.25Z"></path></g></g></g><g id="g-root-ic_mess_zs6o4k1drnf9r-fill" data-item-order="0" transform="translate(62, 188)"></g><g id="g-root-ic_mess_zs6o4k1drnf9r-stroke" data-item-order="0" transform="translate(62, 188)"><g id="ic_mess_zs6o4k1drnf9r-stroke" fill="none" stroke-linecap="round" stroke-linejoin="round" stroke-miterlimit="4" stroke="#2C6249" stroke-width="1" stroke-opacity="1"><g><path d="M 23.5 21.25L 17.7505 21.25C 16.368927 21.25 15.249171 22.370426 15.25 23.752001L 15.25 40.75M 40.75 40.751499L 40.75 31.001501M 45.25 40.75C 45.25 43.235283 43.235283 45.25 40.75 45.25L 15.25 45.25C 12.764719 45.25 10.75 43.235283 10.75 40.75ZM 34 18.25C 34 17.00736 35.007362 16 36.25 16C 37.492641 16 38.5 17.00736 38.5 18.25C 38.5 19.492641 37.492641 20.5 36.25 20.5M 36.25 22.75C 36.457108 22.75 36.625 22.917892 36.625 23.125C 36.625 23.332108 36.457108 23.5 36.25 23.5C 36.042892 23.5 35.875 23.332108 35.875 23.125C 35.875 22.917892 36.042892 22.75 36.25 22.75M 36.149502 10.75C 33.756657 10.758009 31.467106 11.725895 29.794098 13.436687C 28.121092 15.147481 27.204573 17.458075 27.25 19.8505C 27.182514 21.525383 27.588543 23.185364 28.421501 24.639999L 25.75 30.25L 31.3615 27.577C 34.641697 29.610451 38.848022 29.352551 41.855232 26.933601C 44.862442 24.514652 46.015785 20.461321 44.73254 16.821556C 43.449295 13.18179 40.00885 10.748056 36.149502 10.75Z"></path></g></g></g><g id="g-root-tx_prompt_1d1rr8k1drneoc-fill" data-item-order="0" transform="translate(278.640625, 126.79833984375)"><g id="tx_prompt_1d1rr8k1drneoc-fill-merged" stroke="none" fill="#2C6249" fill-opacity="1"><g><text style="font: bold 10.5px Roboto, sans-serif; white-space: pre;" transform="translate(51.359375, 22.600830078125)" font-weight="bold" font-size="10.5px" font-family="Roboto, sans-serif"><tspan x="-36.76" y="-0.6" dominant-baseline="ideographic">大语言模型根据 </tspan><tspan x="-39.36" y="12" dominant-baseline="ideographic">prompt 生成答案</tspan></text></g></g></g><g id="g-root-tx_prompt_1d1rr8k1drneoc-stroke" data-item-order="0" transform="translate(278.640625, 126.79833984375)"></g><g id="g-root-tx__1qd89lw1drnd3e-fill" data-item-order="0" transform="translate(156, 126.79833984375)"><g id="tx__1qd89lw1drnd3e-fill-merged" stroke="none" fill="#2C6249" fill-opacity="1"><g><text style="font: bold 10.5px Roboto, sans-serif; white-space: pre;" transform="translate(54, 22.600830078125)" font-weight="bold" font-size="10.5px" font-family="Roboto, sans-serif"><tspan x="-42" y="-0.6" dominant-baseline="ideographic">向量用于在数据库</tspan><tspan x="-36.75" y="12" dominant-baseline="ideographic">中查找相关信息</tspan></text></g></g></g><g id="g-root-tx__1qd89lw1drnd3e-stroke" data-item-order="0" transform="translate(156, 126.79833984375)"></g><g id="g-root-tx__74qsk1drnfnk-fill" data-item-order="0" transform="translate(36, 126.79833984375)"><g id="tx__74qsk1drnfnk-fill-merged" stroke="none" fill="#2C6249" fill-opacity="1"><g><text style="font: bold 10.5px Roboto, sans-serif; white-space: pre;" transform="translate(54, 22.600830078125)" font-weight="bold" font-size="10.5px" font-family="Roboto, sans-serif"><tspan x="-42" y="-0.6" dominant-baseline="ideographic">用户输入问题并被</tspan><tspan x="-21" y="12" dominant-baseline="ideographic">系统收到</tspan></text></g></g></g><g id="g-root-tx__74qsk1drnfnk-stroke" data-item-order="0" transform="translate(36, 126.79833984375)"></g><g id="g-root-tx__18ly9441drnfgl-fill" data-item-order="0" transform="translate(414, 106.3984375)"><g id="tx__18ly9441drnfgl-fill-merged" stroke="none" fill="#2C6249" fill-opacity="1"><g><text style="font: bold 12px &quot;Roboto Slab&quot;, serif; white-space: pre;" transform="translate(36, 17.199951171875)" font-weight="bold" font-size="12px" font-family="'Roboto Slab', serif"><tspan x="-33.5" y="7.8" font-size="15px" dominant-baseline="ideographic">❼</tspan><tspan y="7.8" dominant-baseline="ideographic"> 回应引用</tspan></text></g></g></g><g id="g-root-tx__18ly9441drnfgl-stroke" data-item-order="0" transform="translate(414, 106.3984375)"></g><g id="g-root-tx__1lxerhg1drndvn-fill" data-item-order="0" transform="translate(306, 106.3984375)"><g id="tx__1lxerhg1drndvn-fill-merged" stroke="none" fill="#2C6249" fill-opacity="1"><g><text style="font: bold 12px &quot;Roboto Slab&quot;, serif; white-space: pre;" transform="translate(24, 17.199951171875)" font-weight="bold" font-size="12px" font-family="'Roboto Slab', serif"><tspan x="-21.5" y="7.8" font-size="15px" dominant-baseline="ideographic">❺</tspan><tspan y="7.8" dominant-baseline="ideographic"> 生成</tspan></text></g></g></g><g id="g-root-tx__1lxerhg1drndvn-stroke" data-item-order="0" transform="translate(306, 106.3984375)"></g><g id="g-root-tx__1qd89lw1drnd3d-fill" data-item-order="0" transform="translate(186, 106.3984375)"><g id="tx__1qd89lw1drnd3d-fill-merged" stroke="none" fill="#2C6249" fill-opacity="1"><g><text style="font: bold 12px &quot;Roboto Slab&quot;, serif; white-space: pre;" transform="translate(24, 17.199951171875)" font-weight="bold" font-size="12px" font-family="'Roboto Slab', serif"><tspan x="-21.5" y="7.8" font-size="15px" dominant-baseline="ideographic">❸</tspan><tspan y="7.8" dominant-baseline="ideographic"> 检索</tspan></text></g></g></g><g id="g-root-tx__1qd89lw1drnd3d-stroke" data-item-order="0" transform="translate(186, 106.3984375)"></g><g id="g-root-tx__4my8x01drnevb-fill" data-item-order="0" transform="translate(54, 106.3984375)"><g id="tx__4my8x01drnevb-fill-merged" stroke="none" fill="#2C6249" fill-opacity="1"><g><text style="font: bold 12px &quot;Roboto Slab&quot;, serif; white-space: pre;" transform="translate(36, 17.199951171875)" font-weight="bold" font-size="12px" font-family="'Roboto Slab', serif"><tspan x="-33.5" y="7.8" font-size="15px" dominant-baseline="ideographic">❶</tspan><tspan y="7.8" dominant-baseline="ideographic"> 接收问题</tspan></text></g></g></g><g id="g-root-tx__4my8x01drnevb-stroke" data-item-order="0" transform="translate(54, 106.3984375)"></g><g id="g-root-tx__mdlsbo1drnfny-fill" data-item-order="0" transform="translate(201, 38)"><g id="tx__mdlsbo1drnfny-fill-merged" stroke="none" fill="#2C6249" fill-opacity="1"><g><text style="font: bold 20px &quot;Roboto Slab&quot;, serif; white-space: pre;" transform="translate(102, 22)" font-weight="bold" font-size="20px" font-family="'Roboto Slab', serif"><tspan x="-90" y="13" dominant-baseline="ideographic">RAG的流程运作步骤</tspan></text></g></g></g><g id="g-root-tx__mdlsbo1drnfny-stroke" data-item-order="0" transform="translate(201, 38)"></g><g id="g-root-ic_2_m7d4mc1dr53ik-fill" data-item-order="0" transform="translate(122, 272)"></g><g id="g-root-ic_2_m7d4mc1dr53ik-stroke" data-item-order="0" transform="translate(122, 272)"><g id="ic_2_m7d4mc1dr53ik-stroke" fill="none" stroke-linecap="round" stroke-linejoin="round" stroke-miterlimit="4" stroke="#2C6249" stroke-width="1" stroke-opacity="1"><g><path d="M 25.634501 38.538998L 10.7485 38.538998L 10.7485 16.9375L 20.384501 16.9375L 25.634501 21.4375L 25.634501 38.538998ZM 29.284 22.639L 32.018501 20.432499M 29.284 34.484501L 32.018501 36.691002M 34.748501 37.1875L 45.248501 37.1875M 39.998501 37.1875L 39.998501 34.5625M 42.862 37.1875C 42.862 37.1875 42.1465 45.0625 34.987 45.0625M 38.115997 40.182999C 39.139027 43.115318 41.910374 45.075142 45.015999 45.0625M 37.373501 23.188L 37.373501 17.938C 37.373501 16.488253 38.548756 15.313001 39.998501 15.313001C 41.44825 15.313001 42.623501 16.488253 42.623501 17.938L 42.623501 23.188M 37.373501 19.687L 42.623501 19.687M 35.623001 12.688C 35.623001 12.688 37.373501 10.9375 38.248001 10.9375C 39.122501 10.9375 41.747501 12.688 42.623501 12.688C 43.4995 12.688 45.25 10.9375 45.25 10.9375"></path></g></g></g><g id="g-root-ic_edit_91iw101drdlaa-fill" data-item-order="0" transform="translate(242, 272)"></g><g id="g-root-ic_edit_91iw101drdlaa-stroke" data-item-order="0" transform="translate(242, 272)"><g id="ic_edit_91iw101drdlaa-stroke" fill="none" stroke-linecap="round" stroke-linejoin="round" stroke-miterlimit="4" stroke="#F5EFE4" stroke-width="1" stroke-opacity="1"><g><path d="M 41.5 24.25L 41.5 40.75C 41.5 41.578426 40.828426 42.25 40 42.25L 32.5 42.25M 16 28.75L 16 12.25C 16 11.421573 16.671574 10.75 17.5 10.75L 34.129002 10.75M 31 31.75L 20.5 31.75C 20.027864 31.75 19.583282 31.527708 19.299999 31.150002L 17.950001 29.349998C 17.666718 28.972292 17.222136 28.75 16.75 28.75L 13 28.75C 12.171573 28.75 11.5 29.421572 11.5 30.25L 11.5 43.75C 11.5 44.578426 12.171573 45.25 13 45.25L 31 45.25C 31.828428 45.25 32.5 44.578426 32.5 43.75L 32.5 33.25C 32.5 32.421574 31.828428 31.75 31 31.75ZM 34.75 25L 29.5 26.5L 31 21.25L 39.973 12.277C 41.01329 11.269953 42.669006 11.283393 43.69281 12.307195C 44.716606 13.330996 44.730049 14.986714 43.723 16.027Z"></path></g></g></g><g id="g-root-ic_prot_1hdui041drhte4-fill" data-item-order="0" transform="translate(362, 272)"></g><g id="g-root-ic_prot_1hdui041drhte4-stroke" data-item-order="0" transform="translate(362, 272)"><g id="ic_prot_1hdui041drhte4-stroke" fill="none" stroke-linecap="round" stroke-linejoin="round" stroke-miterlimit="4" stroke="#2C6249" stroke-width="1" stroke-opacity="1"><g><path d="M 44.875 33.625C 44.875 39.025002 40.974998 43.824997 35.875 44.875C 30.775002 43.824997 26.875 39.025002 26.875 33.625L 26.875 29.125C 26.875 27.924999 27.924999 26.875 29.125 26.875L 42.625 26.875C 43.824997 26.875 44.875 27.924999 44.875 29.125L 44.875 33.625ZM 35.949997 31.646349L 35.949997 38.396351M 32.5 34.94635L 39.25 34.94635M 21.452049 42.1735L 11.125 44.875L 13.819016 34.519451M 21.452049 42.1735L 13.819016 34.519451M 21.452049 42.1735L 24.026844 39.598751M 13.819016 34.519451L 35.520851 12.757615C 37.616203 10.656481 41.058548 10.506398 43.303448 12.757615C 45.3988 14.858755 45.3988 18.310555 43.303448 20.561785L 40.759148 23.11318M 34.92205 13.3579L 42.715599 21.151344M 36.269051 22.513014L 31.03075 17.260164"></path></g></g></g><g id="g-root-ic_1_143mxt01dros1y-fill" data-item-order="0" transform="translate(482, 272)"></g><g id="g-root-ic_1_143mxt01dros1y-stroke" data-item-order="0" transform="translate(482, 272)"><g id="ic_1_143mxt01dros1y-stroke" fill="none" stroke-linecap="round" stroke-linejoin="round" stroke-miterlimit="4" stroke="#2C6249" stroke-width="1" stroke-opacity="1"><g><path d="M 40.75 43.75C 40.75 44.578426 40.078426 45.25 39.25 45.25L 16.75 45.25C 15.921573 45.25 15.25 44.578426 15.25 43.75L 15.25 12.25C 15.25 11.421573 15.921573 10.75 16.75 10.75L 39.25 10.75C 40.078426 10.75 40.75 11.421573 40.75 12.25ZM 37.75 19.75C 37.75 20.578426 37.078426 21.25 36.25 21.25L 19.75 21.25C 18.921574 21.25 18.25 20.578426 18.25 19.75L 18.25 15.25C 18.25 14.421573 18.921574 13.75 19.75 13.75L 36.25 13.75C 37.078426 13.75 37.75 14.421573 37.75 15.25ZM 37.75 30.25C 37.75 31.078428 37.078426 31.75 36.25 31.75L 19.75 31.75C 18.921574 31.75 18.25 31.078428 18.25 30.25L 18.25 25.75C 18.25 24.921572 18.921574 24.25 19.75 24.25L 36.25 24.25C 37.078426 24.25 37.75 24.921572 37.75 25.75ZM 37.75 40.75C 37.75 41.578426 37.078426 42.25 36.25 42.25L 19.75 42.25C 18.921574 42.25 18.25 41.578426 18.25 40.75L 18.25 36.25C 18.25 35.421574 18.921574 34.75 19.75 34.75L 36.25 34.75C 37.078426 34.75 37.75 35.421574 37.75 36.25ZM 25.75 16.75L 30.25 16.75M 25.75 27.25L 30.25 27.25M 25.75 37.75L 30.25 37.75"></path></g></g></g><g id="g-root-tx__mfh7l01drneof-fill" data-item-order="0" transform="translate(114, 344)"><g id="tx__mfh7l01drneof-fill-merged" stroke="none" fill="#2C6249" fill-opacity="1"><g><text style="font: bold 12px &quot;Roboto Slab&quot;, serif; white-space: pre;" transform="translate(36, 17.199951171875)" font-weight="bold" font-size="12px" font-family="'Roboto Slab', serif"><tspan x="-33.5" y="7.8" font-size="15px" dominant-baseline="ideographic">❷</tspan><tspan y="7.8" dominant-baseline="ideographic"> 嵌入理解</tspan></text></g></g></g><g id="g-root-tx__mfh7l01drneof-stroke" data-item-order="0" transform="translate(114, 344)"></g><g id="g-root-tx_prompt_hznpgk1drnfgp-fill" data-item-order="0" transform="translate(226.52734375, 344)"><g id="tx_prompt_hznpgk1drnfgp-fill-merged" stroke="none" fill="#2C6249" fill-opacity="1"><g><text style="font: bold 12px &quot;Roboto Slab&quot;, serif; white-space: pre;" transform="translate(43.47265625, 24.399169921875)" font-weight="bold" font-size="12px" font-family="'Roboto Slab', serif"><tspan x="-40.97" y="0.6" font-size="15px" dominant-baseline="ideographic">❹</tspan><tspan y="0.6" dominant-baseline="ideographic"> 增强（组装 </tspan><tspan x="-28.68" y="15" dominant-baseline="ideographic">Prompt）</tspan></text></g></g></g><g id="g-root-tx_prompt_hznpgk1drnfgp-stroke" data-item-order="0" transform="translate(226.52734375, 344)"></g><g id="g-root-tx__4oto6c1drndvv-fill" data-item-order="0" transform="translate(342, 344)"><g id="tx__4oto6c1drndvv-fill-merged" stroke="none" fill="#2C6249" fill-opacity="1"><g><text style="font: bold 12px &quot;Roboto Slab&quot;, serif; white-space: pre;" transform="translate(48, 17.199951171875)" font-weight="bold" font-size="12px" font-family="'Roboto Slab', serif"><tspan x="-45.5" y="7.8" font-size="15px" dominant-baseline="ideographic">❻</tspan><tspan y="7.8" dominant-baseline="ideographic"> 守门（护栏）</tspan></text></g></g></g><g id="g-root-tx__4oto6c1drndvv-stroke" data-item-order="0" transform="translate(342, 344)"></g><g id="g-root-tx__1lza6qs1drncw5-fill" data-item-order="0" transform="translate(486, 344)"><g id="tx__1lza6qs1drncw5-fill-merged" stroke="none" fill="#2C6249" fill-opacity="1"><g><text style="font: bold 12px &quot;Roboto Slab&quot;, serif; white-space: pre;" transform="translate(24, 17.199951171875)" font-weight="bold" font-size="12px" font-family="'Roboto Slab', serif"><tspan x="-21.5" y="7.8" font-size="15px" dominant-baseline="ideographic">❽</tspan><tspan y="7.8" dominant-baseline="ideographic"> 记录</tspan></text></g></g></g><g id="g-root-tx__1lza6qs1drncw5-stroke" data-item-order="0" transform="translate(486, 344)"></g><g id="g-root-tx__hznpgk1drnfgo-fill" data-item-order="0" transform="translate(96, 364.39990234375)"><g id="tx__hznpgk1drnfgo-fill-merged" stroke="none" fill="#2C6249" fill-opacity="1"><g><text style="font: bold 10.5px Roboto, sans-serif; white-space: pre;" transform="translate(54, 22.600830078125)" font-weight="bold" font-size="10.5px" font-family="Roboto, sans-serif"><tspan x="-42" y="-0.6" dominant-baseline="ideographic">问题被整理并转换</tspan><tspan x="-26.25" y="12" dominant-baseline="ideographic">为数字向量</tspan></text></g></g></g><g id="g-root-tx__hznpgk1drnfgo-stroke" data-item-order="0" transform="translate(96, 364.39990234375)"></g><g id="g-root-tx__9061w1drneo4-fill" data-item-order="0" transform="translate(336, 364.39990234375)"><g id="tx__9061w1drneo4-fill-merged" stroke="none" fill="#2C6249" fill-opacity="1"><g><text style="font: bold 10.5px Roboto, sans-serif; white-space: pre;" transform="translate(54, 28.901611328125)" font-weight="bold" font-size="10.5px" font-family="Roboto, sans-serif"><tspan x="-42" y="-6.9" dominant-baseline="ideographic">系统检查答案是否</tspan><tspan x="-42" y="5.7" dominant-baseline="ideographic">存在问题并进行修</tspan><tspan x="-5.25" y="18.3" dominant-baseline="ideographic">正</tspan></text></g></g></g><g id="g-root-tx__9061w1drneo4-stroke" data-item-order="0" transform="translate(336, 364.39990234375)"></g><g id="g-root-tx__1d3n6hw1drndou-fill" data-item-order="0" transform="translate(456, 364.39990234375)"><g id="tx__1d3n6hw1drndou-fill-merged" stroke="none" fill="#2C6249" fill-opacity="1"><g><text style="font: bold 10.5px Roboto, sans-serif; white-space: pre;" transform="translate(54, 22.600830078125)" font-weight="bold" font-size="10.5px" font-family="Roboto, sans-serif"><tspan x="-42" y="-0.6" dominant-baseline="ideographic">问答被记录在日志</tspan><tspan x="-31.5" y="12" dominant-baseline="ideographic">和对话历史中</tspan></text></g></g></g><g id="g-root-tx__1d3n6hw1drndou-stroke" data-item-order="0" transform="translate(456, 364.39990234375)"></g><g id="g-root-tx_prompt_dkgof81drnd36-fill" data-item-order="0" transform="translate(216, 378.79833984375)"><g id="tx_prompt_dkgof81drnd36-fill-merged" stroke="none" fill="#2C6249" fill-opacity="1"><g><text style="font: bold 10.5px Roboto, sans-serif; white-space: pre;" transform="translate(54, 28.901611328125)" font-weight="bold" font-size="10.5px" font-family="Roboto, sans-serif"><tspan x="-42" y="-6.9" dominant-baseline="ideographic">检索到的信息与原</tspan><tspan x="-42" y="5.7" dominant-baseline="ideographic">始问题和指令组合</tspan><tspan x="-23.6" y="18.3" dominant-baseline="ideographic">成 prompt</tspan></text></g></g></g><g id="g-root-tx_prompt_dkgof81drnd36-stroke" data-item-order="0" transform="translate(216, 378.79833984375)"></g><g id="g-root-tx__zqxpyc1drnd3i-fill" data-item-order="0" transform="translate(396, 126.79833984375)"><g id="tx__zqxpyc1drnd3i-fill-merged" stroke="none" fill="#2C6249" fill-opacity="1"><g><text style="font: bold 10.5px Roboto, sans-serif; white-space: pre;" transform="translate(54, 22.600830078125)" font-weight="bold" font-size="10.5px" font-family="Roboto, sans-serif"><tspan x="-42" y="-0.6" dominant-baseline="ideographic">答案连同引用一起</tspan><tspan x="-26.25" y="12" dominant-baseline="ideographic">返回给用户</tspan></text></g></g></g><g id="g-root-tx__zqxpyc1drnd3i-stroke" data-item-order="0" transform="translate(396, 126.79833984375)"></g></g></g></svg>
